<?xml version="1.0" encoding="utf-8"?>
<!-- Generator: Adobe Illustrator 27.5.0, SVG Export Plug-In . SVG Version: 6.00 Build 0)  -->
<!DOCTYPE svg PUBLIC "-//W3C//DTD SVG 1.1//EN" "http://www.w3.org/Graphics/SVG/1.1/DTD/svg11.dtd" [
	<!ENTITY ns_extend "http://ns.adobe.com/Extensibility/1.0/">
	<!ENTITY ns_ai "http://ns.adobe.com/AdobeIllustrator/10.0/">
	<!ENTITY ns_graphs "http://ns.adobe.com/Graphs/1.0/">
	<!ENTITY ns_vars "http://ns.adobe.com/Variables/1.0/">
	<!ENTITY ns_imrep "http://ns.adobe.com/ImageReplacement/1.0/">
	<!ENTITY ns_sfw "http://ns.adobe.com/SaveForWeb/1.0/">
	<!ENTITY ns_custom "http://ns.adobe.com/GenericCustomNamespace/1.0/">
	<!ENTITY ns_adobe_xpath "http://ns.adobe.com/XPath/1.0/">
]>
<svg version="1.1" id="Layer_1" xmlns:x="&ns_extend;" xmlns:i="&ns_ai;" xmlns:graph="&ns_graphs;"
	 xmlns="http://www.w3.org/2000/svg" xmlns:xlink="http://www.w3.org/1999/xlink" x="0px" y="0px" viewBox="0 0 4414.2 1000"
	 style="enable-background:new 0 0 4414.2 1000;" xml:space="preserve">
<style type="text/css">
	.st0{fill:#FF9900;}
	.st1{fill:#CCCCCC;}
</style>
<metadata>Svg Vector Icons : http://www.onlinewebfonts.com/icon<sfw  xmlns="&ns_sfw;">
	<slices></slices>
	<sliceSourceBounds  bottomLeftOrigin="true" height="814.6" width="4297.4" x="-1646.8" y="36.8"></sliceSourceBounds>
</sfw>
</metadata>
<path class="st0" d="M1735.3,785.7c-157.1,115.8-384.8,177.6-580.8,177.6c-274.9,0-522.3-101.7-709.5-270.7
	c-14.7-13.3-1.5-31.4,16.1-21.1C663.2,789,913,859.7,1171,859.7c174,0,365.5-36,541.5-110.7C1739.1,737.7,1761.3,766.4,1735.3,785.7
	"/>
<path class="st0" d="M1800.6,711c-20-25.6-132.7-12.1-183.3-6.1c-15.4,1.9-17.8-11.5-3.9-21.2c89.8-63.2,237.1-45,254.3-23.8
	c17.2,21.3-4.5,169-88.8,239.4c-12.9,10.8-25.3,5.1-19.5-9.3C1778.3,842.7,1820.8,736.7,1800.6,711"/>
<path class="st1" d="M1620.8,237.6v-61.4c0-9.3,7.1-15.5,15.5-15.5h275c8.8,0,15.9,6.4,15.9,15.5v52.6c-0.1,8.8-7.5,20.4-20.7,38.6
	L1764,470.8c53-1.3,108.8,6.6,156.8,33.7c10.8,6.1,13.8,15.1,14.6,23.9v65.5c0,8.9-9.9,19.4-20.2,14c-84.6-44.4-197-49.2-290.5,0.5
	c-9.5,5.2-19.5-5.2-19.5-14.1V532c0-10,0.1-27.1,10.1-42.2L1780.4,253h-143.7C1627.9,253,1620.8,246.8,1620.8,237.6 M617.8,620.8
	h-83.7c-8-0.6-14.4-6.6-14.9-14.2V177.2c0-8.6,7.2-15.4,16.1-15.4h78c8.1,0.4,14.6,6.6,15.2,14.4v56.1h1.5
	c20.4-54.2,58.6-79.5,110.1-79.5c52.4,0,85.1,25.3,108.6,79.5c20.2-54.2,66.2-79.5,115.5-79.5c35.1,0,73.4,14.5,96.8,46.9
	c26.5,36.1,21.1,88.6,21.1,134.6l-0.1,271c0,8.6-7.2,15.5-16.1,15.5h-83.5c-8.4-0.6-15.1-7.3-15.1-15.5V377.7
	c0-18.1,1.6-63.3-2.4-80.5c-6.2-28.8-24.9-36.9-49.2-36.9c-20.2,0-41.4,13.5-50,35.2c-8.6,21.7-7.8,57.9-7.8,82.2v227.6
	c0,8.6-7.2,15.5-16.1,15.5h-83.5c-8.5-0.6-15.1-7.3-15.1-15.5l-0.1-227.6c0-47.9,7.9-118.4-51.5-118.4c-60.1,0-57.8,68.7-57.8,118.4
	v227.6C633.9,613.9,626.7,620.8,617.8,620.8 M2164,152.8c124.1,0,191.3,106.6,191.3,242.2c0,131-74.2,234.9-191.3,234.9
	c-121.9,0-188.3-106.6-188.3-239.4C1975.7,256.7,2042.9,152.8,2164,152.8 M2164.7,240.4c-61.7,0-65.5,84-65.5,136.4
	c0,52.5-0.8,164.5,64.8,164.5c64.8,0,67.9-90.4,67.9-145.4c0-36.2-1.5-79.5-12.5-113.9C2210,252.1,2191.3,240.4,2164.7,240.4
	 M2516.3,620.8H2433c-8.4-0.6-15.1-7.3-15.1-15.5l-0.1-429.5c0.7-7.9,7.6-14,16.1-14h77.5c7.3,0.4,13.3,5.3,14.9,12v65.7h1.5
	c23.4-58.7,56.2-86.7,114-86.7c37.5,0,74.1,13.5,97.7,50.6c21.9,34.4,21.9,92.1,21.9,133.7v270.3c-0.9,7.5-7.9,13.5-16.1,13.5h-83.9
	c-7.6-0.6-14-6.2-14.8-13.5V374.1c0-46.9,5.4-115.7-52.4-115.7c-20.4,0-39.1,13.6-48.4,34.4c-11.8,26.2-13.3,52.4-13.3,81.3v231.2
	C2532.5,613.9,2525.2,620.8,2516.3,620.8 M2813.8,586.7c0-21.7,18.5-39.1,41.2-39.1c22.7,0,41.2,17.4,41.2,39.1
	c0,21.5-18.5,39.2-41.2,39.2C2832.3,625.9,2813.8,608.2,2813.8,586.7 M3700.2,620.9c-8.7-0.4-15.5-7.1-15.5-15.5V176.1
	c0.5-7.6,6.9-13.6,14.9-14.1h30.7c8.5,0,15.3,6.1,16,14.1v62.6c21.9-49.7,62.6-88.5,114-88.5h6.2c54.6,0,94.5,40.2,109.3,98.7
	c23.2-57.8,66.7-98.7,124.1-98.7h6.4c40.6,0,79.7,26.1,99.9,65.9c19.5,38,18.8,88.6,18.8,131.1l-0.1,258.3
	c0.1,8.2-6.6,14.9-14.9,15.5h-36.7c-8-0.4-14.5-6-15.5-13.4V347.1c0-30.7,1.5-63.3-10.9-91.3c-12.7-28.6-37.1-46.5-63.2-47.8
	c-29.2,1.4-56,22.7-73.4,51.4c-22.6,37.1-21.8,70.5-21.8,113.8v234.5c-1.1,7.1-7.3,12.6-14.9,13.2h-36.5
	c-8.7-0.4-15.6-7.1-15.6-15.5l-0.2-275.5c0-25.3-1.5-55.1-13.2-77.8c-13.5-25.9-37.8-42.8-63.2-44.1c-26.4,1.5-53,21.7-68.7,45.1
	c-20.4,29.9-24.2,66.8-24.2,104.8v247.4c0,8.2-6.7,14.9-15.1,15.5L3700.2,620.9 M3448.2,629.9c-118.7,0-171.9-121.1-171.9-242.2
	c0-127.3,62.5-237.6,182-237.6h6.4c116.3,0,174.1,117.4,174.1,238.5c0,128.3-64.1,241.2-184.4,241.2H3448.2 M3456.9,571.2
	c39.1-1.3,69.9-25.5,88.1-65.9c16.4-36.2,19.5-77.8,19.5-117.5c0-43.3-4.7-88.5-25.1-125.5c-18.2-32.4-49.5-53-82.7-54.1
	c-36.9,1.3-70,26.4-86.6,65c-14.9,33.4-19.5,77.8-19.5,114.7c0,41.5,5.4,89.5,22.6,125.7C3389.9,547.6,3422,569.9,3456.9,571.2
	 M3077.2,569.3c53.3-1.6,81.3-44.4,92.8-99.7c2.4-6.9,7.6-12.2,15.4-12.2l35.2-0.1c8.4,0.4,16,6.7,15.3,14.5
	c-16.2,94.3-73.1,158.1-154,158.1h-6.4c-117.9,0-168.7-118.4-168.7-238.5c0-119.2,51.5-241.2,169.4-241.2h6.4
	c81.9,0,140.3,63.1,153,157.3c0,7.1-6.6,13.2-14.4,14l-36.8-0.5c-7.8-1.1-12.8-7.6-14-15.1c-8.8-52.6-39.1-94.5-89.4-96.1
	c-80.1,2.6-103,101.2-103,177.1C2978,460,2997,566.7,3077.2,569.3 M1550.6,542.1c-15.3-21.2-31.5-38.4-31.5-77.5V334.2
	c0-55.2,3.9-105.9-36.8-143.9c-32.1-30.8-85.3-41.7-126-41.7c-79.5,0-168.5,29.6-187.1,128c-2,10.5,5.6,16,12.5,17.5l81.1,8.7
	c7.6-0.4,13.2-7.8,14.6-15.3c6.9-33.9,35.3-50.2,67.2-50.2c17.3,0,36.8,6.4,47,21.8c11.8,17.2,10.2,40.7,10.2,60.6v10.8
	c-48.5,5.5-111.9,9.1-157.3,29.1c-52.5,22.6-89.2,68.8-89.2,136.7c0,87,54.7,130.4,125.2,130.4c59.4,0,92-14,137.9-60.8
	c15.2,22,20.2,32.7,48,55.8c6.2,3.3,14.2,2.9,19.8-2l0.1,0.2c16.7-14.8,47.1-41.3,64.1-55.5C1557.1,558.7,1555.9,549.6,1550.6,542.1
	L1550.6,542.1z M1386,504.5c-13.3,23.5-34.5,38-57.9,38c-32.1,0-51-24.5-51-60.6c0-71.3,63.9-84.2,124.5-84.2v18.1
	C1401.6,448.3,1402.5,475.5,1386,504.5z M453.8,542.1c-15.3-21.2-31.5-38.4-31.5-77.5V334.2c0-55.2,3.9-105.9-36.8-143.9
	c-32.1-30.8-85.3-41.7-126-41.7c-79.5,0-168.4,29.6-187.1,128c-1.9,10.5,5.6,16,12.5,17.5l81.2,8.7c7.5-0.4,13.1-7.8,14.5-15.3
	c6.9-33.9,35.4-50.2,67.3-50.2c17.2,0,36.7,6.4,47,21.8c11.6,17.2,10.1,40.7,10.1,60.6v10.8c-48.5,5.5-111.9,9.1-157.3,29.1
	c-52.4,22.6-89.2,68.8-89.2,136.7c0,87,54.8,130.4,125.2,130.4c59.5,0,92-14,137.9-60.8c15.3,22,20.2,32.7,48,55.8
	c6.2,3.3,14.2,2.9,19.8-2l0.2,0.2c16.7-14.8,47.1-41.3,64.1-55.5C460.4,558.7,459.3,549.6,453.8,542.1L453.8,542.1z M289.2,504.5
	c-13.3,23.5-34.4,38-57.9,38c-32.1,0-50.8-24.5-50.8-60.6c0-71.3,63.9-84.2,124.4-84.2v18.1C304.9,448.3,305.7,475.5,289.2,504.5z
	 M4311.9,166.5c20.1,0,36.8,16.2,36.8,36.7c0,20-16.5,36.8-36.8,36.8c-20.2,0-36.7-16.5-36.7-36.8
	C4275.2,182.5,4291.9,166.5,4311.9,166.5 M4312.1,159.5c-23.5,0-43.9,19.1-43.9,43.9c0,24.4,20,43.8,43.9,43.8
	c24,0,43.8-19.6,43.8-43.8C4355.8,178.5,4335.7,159.5,4312.1,159.5 M4295.6,227.9h9.4v-19.8h8.7c3.4,0,4.4,1.4,5.1,4.2
	c0,0.7,1.6,13.2,1.8,15.5h10.5c-1.3-2.4-2-9.1-2.5-13.1c-0.9-6.2-1.4-10.6-8.1-11.1c3.4-1.2,9.3-3.1,9.3-12.1
	c0-12.9-11.4-12.9-17.3-12.9h-16.8V227.9 M4304.8,186.6h7.9c2.6,0,7.3,0,7.3,6.7c0,2.6-1.2,6.9-7.5,6.9h-7.6V186.6"/>
</svg>
