<?xml version="1.0" encoding="utf-8"?>
<!-- Generator: Adobe Illustrator 27.5.0, SVG Export Plug-In . SVG Version: 6.00 Build 0)  -->
<!DOCTYPE svg PUBLIC "-//W3C//DTD SVG 1.1//EN" "http://www.w3.org/Graphics/SVG/1.1/DTD/svg11.dtd" [
	<!ENTITY ns_extend "http://ns.adobe.com/Extensibility/1.0/">
	<!ENTITY ns_ai "http://ns.adobe.com/AdobeIllustrator/10.0/">
	<!ENTITY ns_graphs "http://ns.adobe.com/Graphs/1.0/">
	<!ENTITY ns_vars "http://ns.adobe.com/Variables/1.0/">
	<!ENTITY ns_imrep "http://ns.adobe.com/ImageReplacement/1.0/">
	<!ENTITY ns_sfw "http://ns.adobe.com/SaveForWeb/1.0/">
	<!ENTITY ns_custom "http://ns.adobe.com/GenericCustomNamespace/1.0/">
	<!ENTITY ns_adobe_xpath "http://ns.adobe.com/XPath/1.0/">
]>
<svg version="1.1" id="Layer_1" xmlns:x="&ns_extend;" xmlns:i="&ns_ai;" xmlns:graph="&ns_graphs;"
	 xmlns="http://www.w3.org/2000/svg" xmlns:xlink="http://www.w3.org/1999/xlink" x="0px" y="0px" viewBox="0 0 4414.2 1000"
	 style="enable-background:new 0 0 4414.2 1000;" xml:space="preserve">
<style type="text/css">
	.st0{fill:#E94F1C;}
	.st1{fill:#E4441C;}
	.st2{fill:#FFFFFF;}
	.st3{fill:none;stroke:#DD4531;stroke-width:1.1577;stroke-miterlimit:8.5;}
	.st4{fill:#F2F2F2;stroke:#333333;stroke-width:1.1577;stroke-miterlimit:8.5;}
</style>
<metadata>Svg Vector Icons : http://www.onlinewebfonts.com/icon<sfw  xmlns="&ns_sfw;">
	<slices></slices>
	<sliceSourceBounds  bottomLeftOrigin="true" height="906.1" width="4401.8" x="-1693.5" y="24.1"></sliceSourceBounds>
</sfw>
</metadata>
<path class="st0" d="M782.8,914.2H121.3c-101.8,0-104.7-97.9-104.7-101.8v-637c0-99.8,97.9-99.8,101.8-101.8h634.1
	c99.8,0,99.8,97.9,99.8,101.8v668.3l54.8,54.8l-70.5,67.5l-51.9-51.9L782.8,914.2L782.8,914.2z"/>
<path class="st1" d="M753.5,80.5c93,0,94.9,91,94.9,94.9v670.3l2,4.9l49.9,45l-63.6,63.6l-45-47.9l-4.9-4.9H118.4
	c-93,0-94.9-91-94.9-94.9v-637c0-93,91-94.9,94.9-94.9h635.1 M753.5,69.7H118.4c0,0-106.7,0-106.7,106.7v636.1
	c0,0,0,106.7,106.7,106.7h663.5l54.8,56.8l79.3-77.3l-56.8-56.8V175.4C859.2,175.4,859.2,69.7,753.5,69.7z"/>
<path class="st2" d="M429.6,655.9V521.8h-99.8v120.4c0,11.7-4.9,18.6-18.6,18.6h-11.7c-13.7,0-18.6-6.8-18.6-18.6V340.8
	c0-11.7,4.9-15.7,18.6-15.7h11.7c11.7,0,18.6,6.8,18.6,15.7v106.7h97.9V332c0-63.6-29.4-93-91-93H275c-61.6,0-93,29.4-93,91v328.8
	c0,61.6,31.3,91,93,91h61.6c61.6,0,93-29.4,93-91"/>
<path class="st3" d="M429.6,655.9V521.8h-99.8v120.4c0,11.7-4.9,18.6-18.6,18.6h-11.7c-13.7,0-18.6-6.8-18.6-18.6V340.8
	c0-11.7,4.9-15.7,18.6-15.7h11.7c11.7,0,18.6,6.8,18.6,18.6v104.7h97.9V333c0-61.6-29.4-93-91-93H275c-61.6,0-93,31.3-93,91v328.8
	c0,61.6,31.3,91,93,91h61.6c61.6,0,93-29.4,93-91"/>
<path class="st2" d="M607.7,642.2c0,11.7-6.8,18.6-18.6,18.6h-24.5V531.6h22.5c13.7,0,20.5,6.8,20.5,18.6v91L607.7,642.2
	L607.7,642.2z M607.7,429.8c0,11.7-6.8,18.6-20.5,18.6h-22.5V328.1h22.5c13.7,0,18.6,6.8,18.6,18.6v84.2h2V429.8z M707.5,652V550.2
	c0-36.2-13.7-56.8-43.1-65.6c27.4-6.8,43.1-29.4,43.1-74.4v-74.4c0-63.6-31.3-94.9-94.9-94.9H465.8v509.8h151.7
	c63.6,0,93-31.3,93-94.9"/>
<path class="st3" d="M607.7,642.2c0,11.7-6.8,18.6-18.6,18.6h-24.5V531.6h22.5c13.7,0,20.5,6.8,20.5,18.6v91L607.7,642.2
	L607.7,642.2z M607.7,429.8c0,11.7-6.8,18.6-20.5,18.6h-22.5V328.1h22.5c13.7,0,18.6,6.8,18.6,18.6v84.2h2V429.8z M707.5,652V550.2
	c0-36.2-13.7-56.8-43.1-65.6c27.4-6.8,43.1-29.4,43.1-74.4v-74.4c0-63.6-31.3-94.9-94.9-94.9H465.8v509.8h151.7
	c63.6,0,93-31.3,93-94.9"/>
<path class="st4" d="M1261.1,640.2V506.2h-99.8v124.3c0,11.7-6.8,18.6-18.6,18.6H1129c-13.7,0-18.6-6.8-18.6-18.6V324.2
	c0-11.7,4.9-18.6,18.6-18.6h11.7c11.7,0,18.6,6.8,18.6,18.6v106.7h99.8V313.4c0-63.6-31.3-93-94.9-93h-58.7
	c-63.6,0-94.9,29.4-94.9,93v325.9c0,63.6,31.3,93,93,94.9h63.6C1229.8,735.2,1261.1,703.8,1261.1,640.2 M1472.4,436.7
	c0,11.7-4.9,15.7-15.7,15.7h-24.5v-138h22.5c13.7,0,20.5,6.8,20.5,15.7v104.7L1472.4,436.7z M1472.4,731.2h101.8V557.1
	c0-36.2-11.7-56.8-43.1-65.6c27.4-8.8,45-31.3,45-74.4v-97.9c-2-63.6-36.2-91-97.9-91h-151.7v504.9h101.8V540.4h22.5
	c13.7,0,20.5,6.8,20.5,18.6v174.2L1472.4,731.2z M1643.7,731.2h189.8v-91h-91V517.9h84.2v-91h-81.2V313.4h86.1v-91h-187.9
	L1643.7,731.2L1643.7,731.2z M2038,567.8h-45l22.5-222.1L2038,567.8z M2054.7,731.2h101.8l-67.5-504.9h-136l-67.5,504.9h91l8.8-74.4
	h63.6C2047.8,655.9,2054.7,731.2,2054.7,731.2z M2335.5,314.4h61.6v-91H2175v91h61.6v416.9h101.8V314.4H2335.5z M2457.8,731.2h101.8
	V225.3h-101.8V731.2z M2817.9,731.2l67.5-504.9h-94.9l-36.2,356.2l-36.2-356.2h-101.8l67.5,504.9
	C2683.9,731.2,2817.9,731.2,2817.9,731.2z M2942.2,731.2h187.9v-91H3042V517.9h84.2v-91H3042V313.4h88.1v-91h-185.9v507.9h-2V731.2z
	 M3438.3,626.5c0,11.7-6.8,18.6-18.6,18.6h-22.5V516h24.5c11.7,0,18.6,6.8,18.6,18.6v91L3438.3,626.5z M3438.3,414.2
	c0,11.7-6.8,18.6-20.5,18.6h-22.5V312.4h22.5c13.7,0,18.6,6.8,18.6,18.6v84.2h2V414.2z M3538.1,635.3V533.6
	c0-36.2-11.7-56.8-43.1-65.6c27.4-8.8,43.1-31.3,43.1-74.4v-74.4c0-63.6-31.3-93-94.9-93h-149.7v504.9h151.7
	C3508.8,731.2,3538.1,698.9,3538.1,635.3 M3606.6,731.2h174.2v-91h-72.4v-412h-101.8v504.9V731.2z M3977.5,633.4
	c0,20.5-20.5,20.5-20.5,20.5h-15.7c-22.5,0-22.5-22.5-22.5-22.5V325.1c0-22.5,22.5-22.5,22.5-22.5h15.7c22.5,0,22.5,22.5,22.5,22.5
	v310.2L3977.5,633.4z M4075.4,655.9V297.7c0,0,0-79.3-79.3-79.3h-91c0,0-81.2,0-81.2,79.3V651c0,0,0,79.3,79.3,81.2h91
	c0,0,81.2,0,81.2-81.2 M4278.9,629.5c0,22.5-18.6,22.5-18.6,22.5h-17.6c-20.5,0-20.5-22.5-20.5-22.5V326.1
	c0-22.5,22.5-22.5,22.5-22.5h15.7c20.5,0,20.5,22.5,20.5,22.5v310.2L4278.9,629.5z M4413,719.5l-34.2-34.2V299.7
	c0,0,0-81.2-81.2-81.2h-91c0,0-81.2,0-81.2,79.3V651c0,0,0,79.3,79.3,81.2h127.2l34.2,34.2l45-47.9h2V719.5z"/>
</svg>
