<?xml version="1.0" encoding="utf-8"?>
<!-- Generator: Adobe Illustrator 26.0.3, SVG Export Plug-In . SVG Version: 6.00 Build 0)  -->
<svg version="1.0" id="katman_1" xmlns="http://www.w3.org/2000/svg" xmlns:xlink="http://www.w3.org/1999/xlink" x="0px" y="0px"
	 viewBox="0 0 600 450" style="enable-background:new 0 0 600 450;" xml:space="preserve">
<style type="text/css">
	.st0{fill:#E94F1C;}
	.st1{fill:#E4441C;}
	.st2{fill:#FFFFFF;}
	.st3{fill:none;stroke:#DD4531;stroke-width:1.1577;stroke-miterlimit:8.5;}
	.st4{fill:url(#SVGID_1_);stroke:#333333;stroke-width:1.1577;stroke-miterlimit:8.5;}
</style>
<path class="st0" d="M153.1,265.4H85.5c-10.4,0-10.7-10-10.7-10.4v-65.1c0-10.2,10-10.2,10.4-10.4h64.8c10.2,0,10.2,10,10.2,10.4
	v68.3l5.6,5.6l-7.2,6.9l-5.3-5.3H153.1z"/>
<path class="st1" d="M150.1,180.2c9.5,0,9.7,9.3,9.7,9.7v68.5l0.2,0.5l5.1,4.6l-6.5,6.5l-4.6-4.9l-0.5-0.5H85.2
	c-9.5,0-9.7-9.3-9.7-9.7v-65.1c0-9.5,9.3-9.7,9.7-9.7H150.1 M150.1,179.1H85.2c0,0-10.9,0-10.9,10.9V255c0,0,0,10.9,10.9,10.9h67.8
	l5.6,5.8l8.1-7.9l-5.8-5.8v-68.1C160.9,189.9,160.9,179.1,150.1,179.1z"/>
<path class="st2" d="M117,239v-13.7h-10.2v12.3c0,1.2-0.5,1.9-1.9,1.9h-1.2c-1.4,0-1.9-0.7-1.9-1.9v-30.8c0-1.2,0.5-1.6,1.9-1.6h1.2
	c1.2,0,1.9,0.7,1.9,1.6v10.9h10v-11.8c0-6.5-3-9.5-9.3-9.5h-6.3c-6.3,0-9.5,3-9.5,9.3v33.6c0,6.3,3.2,9.3,9.5,9.3h6.3
	c6.3,0,9.5-3,9.5-9.3"/>
<path class="st3" d="M117,239v-13.7h-10.2v12.3c0,1.2-0.5,1.9-1.9,1.9h-1.2c-1.4,0-1.9-0.7-1.9-1.9v-30.8c0-1.2,0.5-1.6,1.9-1.6h1.2
	c1.2,0,1.9,0.7,1.9,1.9v10.7h10v-11.8c0-6.3-3-9.5-9.3-9.5h-6.3c-6.3,0-9.5,3.2-9.5,9.3v33.6c0,6.3,3.2,9.3,9.5,9.3h6.3
	c6.3,0,9.5-3,9.5-9.3"/>
<path class="st2" d="M135.2,237.6c0,1.2-0.7,1.9-1.9,1.9h-2.5v-13.2h2.3c1.4,0,2.1,0.7,2.1,1.9v9.3V237.6z M135.2,215.9
	c0,1.2-0.7,1.9-2.1,1.9h-2.3v-12.3h2.3c1.4,0,1.9,0.7,1.9,1.9v8.6H135.2z M145.4,238.6v-10.4c0-3.7-1.4-5.8-4.4-6.7
	c2.8-0.7,4.4-3,4.4-7.6v-7.6c0-6.5-3.2-9.7-9.7-9.7h-15v52.1h15.5c6.5,0,9.5-3.2,9.5-9.7"/>
<path class="st3" d="M135.2,237.6c0,1.2-0.7,1.9-1.9,1.9h-2.5v-13.2h2.3c1.4,0,2.1,0.7,2.1,1.9v9.3V237.6z M135.2,215.9
	c0,1.2-0.7,1.9-2.1,1.9h-2.3v-12.3h2.3c1.4,0,1.9,0.7,1.9,1.9v8.6H135.2z M145.4,238.6v-10.4c0-3.7-1.4-5.8-4.4-6.7
	c2.8-0.7,4.4-3,4.4-7.6v-7.6c0-6.5-3.2-9.7-9.7-9.7h-15v52.1h15.5c6.5,0,9.5-3.2,9.5-9.7"/>
<linearGradient id="SVGID_1_" gradientUnits="userSpaceOnUse" x1="350.926" y1="105.1188" x2="760.0604" y2="105.1188" gradientTransform="matrix(0.85 0 0 -0.85 -120.6699 311.7122)">
	<stop  offset="0" style="stop-color:#3C3C3C"/>
	<stop  offset="1" style="stop-color:#382E30"/>
</linearGradient>
<path class="st4" d="M203.3,237.4v-13.7h-10.2v12.7c0,1.2-0.7,1.9-1.9,1.9h-1.4c-1.4,0-1.9-0.7-1.9-1.9v-31.3c0-1.2,0.5-1.9,1.9-1.9
	h1.2c1.2,0,1.9,0.7,1.9,1.9v10.9h10.2v-12c0-6.5-3.2-9.5-9.7-9.5h-6c-6.5,0-9.7,3-9.7,9.5v33.3c0,6.5,3.2,9.5,9.5,9.7h6.5
	C200.1,247.1,203.3,243.9,203.3,237.4 M224.9,216.6c0,1.2-0.5,1.6-1.6,1.6h-2.5v-14.1h2.3c1.4,0,2.1,0.7,2.1,1.6v10.7L224.9,216.6z
	 M224.9,246.7h10.4v-17.8c0-3.7-1.2-5.8-4.4-6.7c2.8-0.9,4.6-3.2,4.6-7.6v-10c-0.2-6.5-3.7-9.3-10-9.3H210v51.6h10.4v-19.7h2.3
	c1.4,0,2.1,0.7,2.1,1.9v17.8L224.9,246.7z M242.4,246.7h19.4v-9.3h-9.3v-12.5h8.6v-9.3h-8.3v-11.6h8.8v-9.3h-19.2V246.7z M282.7,230
	h-4.6l2.3-22.7L282.7,230z M284.4,246.7h10.4l-6.9-51.6h-13.9l-6.9,51.6h9.3l0.9-7.6h6.5C283.7,239,284.4,246.7,284.4,246.7z
	 M313.1,204.1h6.3v-9.3h-22.7v9.3h6.3v42.6h10.4v-42.6H313.1z M325.6,246.7H336V195h-10.4C325.6,195,325.6,246.7,325.6,246.7z
	 M362.4,246.7l6.9-51.6h-9.7l-3.7,36.4l-3.7-36.4h-10.4l6.9,51.6C348.7,246.7,362.4,246.7,362.4,246.7z M375.1,246.7h19.2v-9.3h-9
	v-12.5h8.6v-9.3h-8.6v-11.6h9v-9.3h-19v51.9H375.1z M425.8,236c0,1.2-0.7,1.9-1.9,1.9h-2.3v-13.2h2.5c1.2,0,1.9,0.7,1.9,1.9v9.3
	L425.8,236z M425.8,214.3c0,1.2-0.7,1.9-2.1,1.9h-2.3v-12.3h2.3c1.4,0,1.9,0.7,1.9,1.9v8.6H425.8z M436,236.9v-10.4
	c0-3.7-1.2-5.8-4.4-6.7c2.8-0.9,4.4-3.2,4.4-7.6v-7.6c0-6.5-3.2-9.5-9.7-9.5H411v51.6h15.5C433,246.7,436,243.4,436,236.9
	 M443,246.7h17.8v-9.3h-7.4v-42.1H443v51.6V246.7z M480.9,236.7c0,2.1-2.1,2.1-2.1,2.1h-1.6c-2.3,0-2.3-2.3-2.3-2.3v-31.3
	c0-2.3,2.3-2.3,2.3-2.3h1.6c2.3,0,2.3,2.3,2.3,2.3v31.7L480.9,236.7z M490.9,239v-36.6c0,0,0-8.1-8.1-8.1h-9.3c0,0-8.3,0-8.3,8.1
	v36.1c0,0,0,8.1,8.1,8.3h9.3c0,0,8.3,0,8.3-8.3 M511.7,236.3c0,2.3-1.9,2.3-1.9,2.3H508c-2.1,0-2.1-2.3-2.1-2.3v-31
	c0-2.3,2.3-2.3,2.3-2.3h1.6c2.1,0,2.1,2.3,2.1,2.3v31.7L511.7,236.3z M525.4,245.5l-3.5-3.5v-39.4c0,0,0-8.3-8.3-8.3h-9.3
	c0,0-8.3,0-8.3,8.1v36.1c0,0,0,8.1,8.1,8.3h13l3.5,3.5l4.6-4.9H525.4z"/>
</svg>
