<?xml version="1.0" encoding="utf-8"?>
<!-- Generator: Adobe Illustrator 26.0.3, SVG Export Plug-In . SVG Version: 6.00 Build 0)  -->
<svg version="1.0" id="LOGO_PROTOTYP" xmlns="http://www.w3.org/2000/svg" xmlns:xlink="http://www.w3.org/1999/xlink" x="0px"
	 y="0px" viewBox="0 0 309.6 240.2" style="enable-background:new 0 0 309.6 240.2;" xml:space="preserve">
<style type="text/css">
	.st0{fill:#D63A2B;}
	.st1{fill:#9D9D9C;}
</style>
<g id="SMASHING_SCHRIFTZUG">
	<g>
		<path id="SMASHING_00000142137189626281969990000004836605237669103238_" class="st0" d="M240.2,115.8c0-6,4.8-10.9,10.8-11
			c4.1,0,7.8,2.2,9.7,5.9l-4,1.3c-2.1-3.1-6.3-3.9-9.4-1.8c-3.1,2.1-3.9,6.3-1.8,9.4c2.1,3.1,6.3,3.9,9.4,1.8c0.5-0.4,1-0.8,1.4-1.3
			l-2.4,0.4l-2.9-2.9l6.2-1l6.2-1l-1,6.2l-1,6.2l-3-3l0.3-1.7c-4.2,4.3-11.1,4.3-15.4,0C241.4,121.4,240.2,118.6,240.2,115.8
			L240.2,115.8z M114.4,119c-0.1,1.2,0.2,2.3,0.7,3.4c0.5,0.9,1.2,1.7,2,2.3c0.9,0.6,1.9,1.1,2.9,1.4c1.1,0.3,2.3,0.5,3.4,0.4
			c1.3,0,2.6-0.1,3.8-0.5c1-0.3,1.9-0.8,2.8-1.4c0.7-0.6,1.3-1.3,1.7-2.2c0.4-0.9,0.6-1.8,0.6-2.7c0-1-0.2-2-0.8-2.9
			c-0.5-0.7-1.1-1.4-1.8-1.8c-0.6-0.4-1.4-0.8-2.1-1c-0.5-0.2-1.1-0.3-1.6-0.4l-3.2-0.8c-0.7-0.2-1.3-0.4-1.9-0.6
			c-0.4-0.1-0.7-0.4-0.9-0.7c-0.2-0.3-0.3-0.7-0.2-1c0-0.4,0.1-0.8,0.3-1.1c0.2-0.3,0.4-0.5,0.7-0.7c0.3-0.2,0.6-0.3,1-0.4
			c0.4-0.1,0.8-0.1,1.1-0.1c0.5,0,1.1,0,1.6,0.1c0.5,0.1,0.9,0.3,1.3,0.5c0.4,0.2,0.7,0.6,0.9,1c0.2,0.5,0.4,1,0.4,1.5h4.5
			c0-1.1-0.2-2.2-0.7-3.1c-0.4-0.9-1.1-1.6-1.9-2.1c-0.8-0.6-1.8-1-2.7-1.2c-1-0.3-2.1-0.4-3.2-0.4c-1,0-1.9,0.1-2.9,0.4
			c-0.9,0.2-1.8,0.6-2.6,1.2c-0.8,0.5-1.4,1.2-1.8,2c-0.5,0.9-0.7,1.8-0.7,2.8c0,0.9,0.2,1.7,0.5,2.5c0.4,0.7,0.9,1.2,1.5,1.7
			c0.6,0.5,1.3,0.8,2,1.1c0.8,0.3,1.5,0.5,2.3,0.7c0.8,0.2,1.5,0.4,2.3,0.6c0.7,0.2,1.3,0.4,2,0.6c0.5,0.2,1,0.5,1.4,0.9
			c0.4,0.4,0.6,0.9,0.6,1.4c0,0.5-0.1,1-0.4,1.3c-0.3,0.3-0.6,0.6-1,0.8c-0.4,0.2-0.9,0.3-1.3,0.4c-0.4,0.1-0.9,0.1-1.3,0.1
			c-0.6,0-1.2,0-1.8-0.2c-0.5-0.1-1.1-0.4-1.5-0.7c-0.4-0.3-0.8-0.7-1-1.2c-0.3-0.6-0.4-1.2-0.4-1.8L114.4,119z M166.3,110l2.7,7.8
			h-5.5L166.3,110z M155.9,125.8v-21h-6.6l-4.8,14.6l-5-14.6h-6.5v21.2h4.4l0.1-14.9l5.2,14.9h3.6l5.3-15.1v15.1h9l1.7-4.7h7.9
			l1.6,4.7h4.8l-8-21.2h-4.8L155.9,125.8z M175.1,119c0,1.2,0.2,2.3,0.7,3.4c0.5,0.9,1.2,1.7,2,2.3c0.9,0.6,1.9,1.1,2.9,1.4
			c1.1,0.3,2.3,0.5,3.4,0.4c1.3,0,2.6-0.1,3.8-0.5c1-0.3,1.9-0.8,2.8-1.4c0.7-0.6,1.3-1.3,1.7-2.2c0.4-0.9,0.6-1.8,0.6-2.7
			c0-1-0.2-2-0.8-2.9c-0.5-0.7-1.1-1.4-1.8-1.8c-0.6-0.4-1.4-0.8-2.1-1c-0.5-0.2-1.1-0.3-1.6-0.4l-3.2-0.8c-0.7-0.2-1.3-0.4-1.9-0.7
			c-0.4-0.1-0.7-0.4-0.9-0.7c-0.2-0.3-0.3-0.7-0.2-1c0-0.4,0.1-0.8,0.3-1.1c0.2-0.3,0.4-0.5,0.7-0.7c0.3-0.2,0.6-0.3,1-0.4
			c0.4-0.1,0.8-0.1,1.1-0.1c0.5,0,1.1,0,1.6,0.2c0.5,0.1,0.9,0.3,1.3,0.5c0.4,0.2,0.7,0.6,0.9,1c0.3,0.5,0.4,1,0.4,1.5h4.5
			c0-1.1-0.2-2.2-0.7-3.1c-0.4-0.9-1.1-1.6-1.9-2.1c-0.8-0.6-1.8-1-2.7-1.2c-1-0.3-2.1-0.4-3.2-0.3c-1,0-1.9,0.1-2.9,0.4
			c-0.9,0.2-1.8,0.6-2.6,1.2c-0.7,0.5-1.4,1.2-1.8,2c-0.5,0.9-0.7,1.8-0.7,2.8c0,0.9,0.2,1.7,0.5,2.5c0.4,0.7,0.9,1.2,1.5,1.7
			c0.6,0.5,1.3,0.8,2,1.1c0.8,0.3,1.5,0.5,2.3,0.7c0.8,0.2,1.5,0.4,2.3,0.6c0.7,0.2,1.3,0.4,2,0.6c0.5,0.2,1,0.5,1.4,0.9
			c0.4,0.4,0.6,0.9,0.6,1.4c0,0.5-0.1,1-0.4,1.3c-0.3,0.3-0.6,0.6-1,0.8c-0.4,0.2-0.9,0.3-1.3,0.4c-0.4,0.1-0.9,0.1-1.3,0.1
			c-0.6,0-1.2-0.1-1.8-0.2c-0.5-0.1-1.1-0.4-1.5-0.7c-0.4-0.3-0.8-0.7-1-1.2c-0.3-0.6-0.4-1.2-0.4-1.8L175.1,119z M193.8,126h4.7
			v-9.1h8.6v9.2h4.7v-21.2h-4.7v8.2h-8.6v-8.2h-4.7L193.8,126z M213.9,126h4.7v-21.2h-4.7V126z M220.7,126h4.4l0.1-14.2L234,126h4.7
			v-21.2h-4.4l-0.1,14.3l-8.9-14.3h-4.6L220.7,126z"/>
	</g>
</g>
<g id="S">
	<g>
		<g id="Kasten_00000097477742304789089460000002624351174646695816_">
			<path class="st0" d="M81.3,130.2c-2.1-1.6-4.5-2.9-7-3.8c-1.9-0.8-3.7-1.7-5.4-2.9c-4-2.8-6-6.2-6-10.4c-0.1-2.5,0.7-4.9,2.2-6.9
				c0.3-0.3,0.6-0.6,0.9-0.9l-8.6,2c-2.5,0.6-4,3.1-3.5,5.5l7.1,30.6c0.6,2.5,3,4,5.5,3.5l3.5-0.8l-0.3-0.1
				c-2.4-0.7-4.6-1.7-6.8-2.9l3.7-8.2c2.9,2.4,6.6,3.7,10.4,3.7c4,0,6-1.4,6-4.3C83.2,132.8,82.5,131.3,81.3,130.2z"/>
			<path class="st0" d="M100.7,134.3l-7.1-30.6c-0.6-2.5-3-4-5.5-3.5l-5.1,1.2c0.6,0.1,1.2,0.2,1.8,0.3c2.3,0.5,4.5,1.3,6.7,2.4
				l-3,8c-2.2-1.9-5.4-2.9-9.4-2.9c-3.6,0-5.4,1.4-5.4,4.3c0.1,1.2,0.7,2.3,1.8,3c2.4,1.5,4.9,2.7,7.6,3.7c2.3,0.8,4.5,2,6.4,3.5
				c0.7,0.6,1.4,1.3,2,2c1.7,2.2,2.6,5,2.5,7.8c0.1,2.7-0.8,5.4-2.4,7.6l5.8-1.4C99.7,139.3,101.3,136.8,100.7,134.3
				C100.7,134.4,100.7,134.3,100.7,134.3z"/>
		</g>
	</g>
</g>
<g id="Text_MAGAZINE">
	<path class="st1" d="M117.3,133.1h1.7l4.2,10.9l4.2-10.9h1.7v12.5H128v-10.8l0,0l-4.2,10.8h-1.1l-4.2-10.8l0,0v10.8h-1.2V133.1z"/>
	<path class="st1" d="M138.6,133.1h1.3l4.8,12.5h-1.3l-1.5-3.9h-5.6l-1.5,3.9h-1.2L138.6,133.1z M136.8,140.7h4.8l-2.4-6.4
		L136.8,140.7z"/>
	<path class="st1" d="M159.8,145.6h-0.8l-0.2-2.3l0,0c-0.8,1.6-2.4,2.6-4.2,2.5c-3.9,0-5.8-3.1-5.8-6.5c0-3.4,1.9-6.5,5.8-6.5
		c2.5-0.2,4.8,1.6,5.1,4.1h-1.2c-0.4-1.9-2-3.2-3.9-3.1c-3.2,0-4.6,2.8-4.6,5.5c0,2.7,1.4,5.5,4.6,5.5c2.7,0,4.3-1.9,4.2-4.6h-4.2
		v-1h5.2V145.6z"/>
	<path class="st1" d="M169,133.1h1.3l4.8,12.5h-1.2l-1.5-3.9h-5.6l-1.5,3.9H164L169,133.1z M167.2,140.7h4.8l-2.4-6.4L167.2,140.7z"
		/>
	<path class="st1" d="M179.1,133.1h8.8v1l-8.1,10.4h8.2v1h-9.5v-1l8.1-10.4h-7.5V133.1z"/>
	<path class="st1" d="M193.1,133.1h1.2v12.5h-1.2V133.1z"/>
	<path class="st1" d="M200.2,133.1h1.3l7.1,10.6l0,0v-10.6h1.2v12.5h-1.3l-7.1-10.5l0,0v10.5h-1.2V133.1z"/>
	<path class="st1" d="M215.8,133.1h8.5v1h-7.3v4.5h6.8v1h-6.8v4.9h7.4v1h-8.6V133.1z"/>
</g>
</svg>
