<?xml version="1.0" encoding="utf-8"?>
<!-- Generator: Adobe Illustrator 27.5.0, SVG Export Plug-In . SVG Version: 6.00 Build 0)  -->
<!DOCTYPE svg PUBLIC "-//W3C//DTD SVG 1.1//EN" "http://www.w3.org/Graphics/SVG/1.1/DTD/svg11.dtd" [
	<!ENTITY ns_extend "http://ns.adobe.com/Extensibility/1.0/">
	<!ENTITY ns_ai "http://ns.adobe.com/AdobeIllustrator/10.0/">
	<!ENTITY ns_graphs "http://ns.adobe.com/Graphs/1.0/">
	<!ENTITY ns_vars "http://ns.adobe.com/Variables/1.0/">
	<!ENTITY ns_imrep "http://ns.adobe.com/ImageReplacement/1.0/">
	<!ENTITY ns_sfw "http://ns.adobe.com/SaveForWeb/1.0/">
	<!ENTITY ns_custom "http://ns.adobe.com/GenericCustomNamespace/1.0/">
	<!ENTITY ns_adobe_xpath "http://ns.adobe.com/XPath/1.0/">
]>
<svg version="1.1" id="Layer_1" xmlns:x="&ns_extend;" xmlns:i="&ns_ai;" xmlns:graph="&ns_graphs;"
	 xmlns="http://www.w3.org/2000/svg" xmlns:xlink="http://www.w3.org/1999/xlink" x="0px" y="0px" viewBox="0 0 4414.2 1000"
	 style="enable-background:new 0 0 4414.2 1000;" xml:space="preserve">
<style type="text/css">
	.st0{fill:#D63A2B;}
	.st1{fill:#9D9D9C;}
</style>
<metadata>Svg Vector Icons : http://www.onlinewebfonts.com/icon<sfw  xmlns="&ns_sfw;">
	<slices></slices>
	<sliceSourceBounds  bottomLeftOrigin="true" height="987.6" width="4414.2" x="-1705.2" y="0"></sliceSourceBounds>
</sfw>
</metadata>
<g id="SMASHING_SCHRIFTZUG">
	<g>
		<path id="SMASHING_00000142137189626281969990000004836605237669103238_" class="st0" d="M3925.6,343
			c0-126.4,101.1-229.6,227.5-231.7c86.3,0,164.3,46.3,204.3,124.3l-84.2,27.4c-44.2-65.3-132.7-82.1-198-37.9
			c-65.3,44.2-82.1,132.7-37.9,198c44.2,65.3,132.7,82.1,198,37.9c10.5-8.4,21.1-16.8,29.5-27.4l-50.5,8.4l-61.1-61.1l130.6-21.1
			l130.6-21.1l-21.1,130.6l-21.1,130.6l-63.2-63.2l6.3-35.8c-88.5,90.6-233.8,90.6-324.3,0C3950.9,460.9,3925.6,402,3925.6,343
			L3925.6,343z M1276.2,410.4c-2.1,25.3,4.2,48.4,14.7,71.6c10.5,19,25.3,35.8,42.1,48.4c19,12.6,40,23.2,61.1,29.5
			c23.2,6.3,48.4,10.5,71.6,8.4c27.4,0,54.8-2.1,80-10.5c21.1-6.3,40-16.8,59-29.5c14.7-12.6,27.4-27.4,35.8-46.3
			c8.4-19,12.6-37.9,12.6-56.9c0-21.1-4.2-42.1-16.8-61.1c-10.5-14.7-23.2-29.5-37.9-37.9c-12.6-8.4-29.5-16.8-44.2-21.1
			c-10.5-4.2-23.2-6.3-33.7-8.4l-67.4-16.8c-14.7-4.2-27.4-8.4-40-12.6c-8.4-2.1-14.7-8.4-19-14.7c-4.2-6.3-6.3-14.7-4.2-21.1
			c0-8.4,2.1-16.8,6.3-23.2c4.2-6.3,8.4-10.5,14.7-14.7c6.3-4.2,12.6-6.3,21.1-8.4c8.4-2.1,16.8-2.1,23.2-2.1
			c10.5,0,23.2,0,33.7,2.1c10.5,2.1,19,6.3,27.4,10.5c8.4,4.2,14.7,12.6,19,21.1c4.2,10.5,8.4,21.1,8.4,31.6h94.8
			c0-23.2-4.2-46.3-14.7-65.3c-8.4-19-23.2-33.7-40-44.2c-16.8-12.6-37.9-21.1-56.9-25.3c-21.1-6.3-44.2-8.4-67.4-8.4
			c-21.1,0-40,2.1-61.1,8.4c-19,4.2-37.9,12.6-54.8,25.3c-16.8,10.5-29.5,25.3-37.9,42.1c-10.5,19-14.7,37.9-14.7,59
			c0,19,4.2,35.8,10.5,52.7c8.4,14.7,19,25.3,31.6,35.8c12.6,10.5,27.4,16.8,42.1,23.2c16.8,6.3,31.6,10.5,48.4,14.7
			c16.8,4.2,31.6,8.4,48.4,12.6c14.7,4.2,27.4,8.4,42.1,12.6c10.5,4.2,21.1,10.5,29.5,19c8.4,8.4,12.6,19,12.6,29.5
			c0,10.5-2.1,21.1-8.4,27.4s-12.6,12.6-21.1,16.8c-8.4,4.2-19,6.3-27.4,8.4s-19,2.1-27.4,2.1c-12.6,0-25.3,0-37.9-4.2
			c-10.5-2.1-23.2-8.4-31.6-14.7c-8.4-6.3-16.8-14.7-21.1-25.3c-6.3-12.6-8.4-25.3-8.4-37.9L1276.2,410.4z M2369.2,220.8l56.9,164.3
			h-115.8L2369.2,220.8z M2150.2,553.6V111.3h-139l-101.1,307.5l-105.3-307.5h-136.9v446.5h92.7l2.1-313.8l109.5,313.8h75.8
			l111.6-318v318h189.5l35.8-99h166.4l33.7,99h101.1l-168.5-446.5h-101.1L2150.2,553.6z M2554.6,410.4c0,25.3,4.2,48.4,14.7,71.6
			c10.5,19,25.3,35.8,42.1,48.4c19,12.6,40,23.2,61.1,29.5c23.2,6.3,48.4,10.5,71.6,8.4c27.4,0,54.8-2.1,80-10.5
			c21.1-6.3,40-16.8,59-29.5c14.7-12.6,27.4-27.4,35.8-46.3c8.4-19,12.6-37.9,12.6-56.9c0-21.1-4.2-42.1-16.8-61.1
			c-10.5-14.7-23.2-29.5-37.9-37.9c-12.6-8.4-29.5-16.8-44.2-21.1c-10.5-4.2-23.2-6.3-33.7-8.4l-67.4-16.8
			c-14.7-4.2-27.4-8.4-40-14.7c-8.4-2.1-14.7-8.4-19-14.7c-4.2-6.3-6.3-14.7-4.2-21.1c0-8.4,2.1-16.8,6.3-23.2
			c4.2-6.3,8.4-10.5,14.7-14.7c6.3-4.2,12.6-6.3,21.1-8.4c8.4-2.1,16.8-2.1,23.2-2.1c10.5,0,23.2,0,33.7,4.2
			c10.5,2.1,19,6.3,27.4,10.5c8.4,4.2,14.7,12.6,19,21.1c6.3,10.5,8.4,21.1,8.4,31.6h94.8c0-23.2-4.2-46.3-14.7-65.3
			c-8.4-19-23.2-33.7-40-44.2c-16.8-12.6-37.9-21.1-56.9-25.3c-21.1-6.3-44.2-8.4-67.4-6.3c-21.1,0-40,2.1-61.1,8.4
			c-19,4.2-37.9,12.6-54.8,25.3c-14.7,10.5-29.5,25.3-37.9,42.1c-10.5,19-14.7,37.9-14.7,59c0,19,4.2,35.8,10.5,52.7
			c8.4,14.7,19,25.3,31.6,35.8c12.6,10.5,27.4,16.8,42.1,23.2c16.8,6.3,31.6,10.5,48.4,14.7c16.8,4.2,31.6,8.4,48.4,12.6
			c14.7,4.2,27.4,8.4,42.1,12.6c10.5,4.2,21.1,10.5,29.5,19s12.6,19,12.6,29.5c0,10.5-2.1,21.1-8.4,27.4
			c-6.3,6.3-12.6,12.6-21.1,16.8c-8.4,4.2-19,6.3-27.4,8.4c-8.4,2.1-19,2.1-27.4,2.1c-12.6,0-25.3-2.1-37.9-4.2
			c-10.5-2.1-23.2-8.4-31.6-14.7c-8.4-6.3-16.8-14.7-21.1-25.3c-6.3-12.6-8.4-25.3-8.4-37.9L2554.6,410.4z M2948.4,557.8h99V366.2
			h181.1v193.8h99V113.4h-99v172.7h-181.1V113.4h-99V557.8z M3371.7,557.8h99V111.3h-99V557.8z M3514.9,557.8h92.7l2.1-299.1
			L3795,557.8h99V111.3h-92.7l-2.1,301.2l-187.4-301.2h-96.9V557.8z"/>
	</g>
</g>
<g id="S">
	<g>
		<g id="Kasten_00000097477742304789089460000002624351174646695816_">
			<path class="st0" d="M579.1,646.3c-44.2-33.7-94.8-61.1-147.4-80c-40-16.8-77.9-35.8-113.7-61.1c-84.2-59-126.4-130.6-126.4-219
				c-2.1-52.7,14.7-103.2,46.3-145.3c6.3-6.3,12.6-12.6,19-19L75.7,164C23.1,176.6-8.5,229.3,2,279.8l149.5,644.5
				c12.6,52.7,63.2,84.2,115.8,73.7l73.7-16.8l-6.3-2.1c-50.5-14.7-96.9-35.8-143.2-61.1l77.9-172.7c61.1,50.5,139,77.9,219,77.9
				c84.2,0,126.4-29.5,126.4-90.6C619.1,701,604.4,669.4,579.1,646.3z"/>
			<path class="st0" d="M987.7,732.6L838.1,88.2c-12.6-52.7-63.2-84.2-115.8-73.7L614.9,39.7c12.6,2.1,25.3,4.2,37.9,6.3
				c48.4,10.5,94.8,27.4,141.1,50.5l-63.2,168.5c-46.3-40-113.7-61.1-198-61.1c-75.8,0-113.7,29.5-113.7,90.6
				c2.1,25.3,14.7,48.4,37.9,63.2c50.5,31.6,103.2,56.9,160.1,77.9c48.4,16.8,94.8,42.1,134.8,73.7c14.7,12.6,29.5,27.4,42.1,42.1
				c35.8,46.3,54.8,105.3,52.7,164.3c2.1,56.9-16.8,113.7-50.5,160.1l122.2-29.5C966.6,837.9,1000.3,785.3,987.7,732.6
				C987.7,734.7,987.7,732.6,987.7,732.6z"/>
		</g>
	</g>
</g>
<g id="Text_MAGAZINE">
	<path class="st1" d="M1337.3,707.3h35.8l88.5,229.6l88.5-229.6h35.8v263.3h-23.2V743.1l0,0l-88.5,227.5H1451l-88.5-227.5l0,0v227.5
		h-25.3C1337.3,970.6,1337.3,707.3,1337.3,707.3z"/>
	<path class="st1" d="M1785.8,707.3h27.4l101.1,263.3h-27.4l-31.6-82.1h-117.9l-31.6,82.1h-25.3L1785.8,707.3z M1747.9,867.4H1849
		l-50.5-134.8L1747.9,867.4z"/>
	<path class="st1" d="M2232.3,970.6h-16.8l-4.2-48.4l0,0c-16.8,33.7-50.5,54.8-88.5,52.7c-82.1,0-122.2-65.3-122.2-136.9
		s40-136.9,122.2-136.9c52.7-4.2,101.1,33.7,107.4,86.3H2205c-8.4-40-42.1-67.4-82.1-65.3c-67.4,0-96.9,59-96.9,115.8
		c0,56.9,29.5,115.8,96.9,115.8c56.9,0,90.6-40,88.5-96.9h-88.5v-21.1h109.5L2232.3,970.6L2232.3,970.6z"/>
	<path class="st1" d="M2426.1,707.3h27.4l101.1,263.3h-25.3l-31.6-82.1h-117.9l-31.6,82.1h-27.4L2426.1,707.3z M2388.2,867.4h101.1
		l-50.5-134.8L2388.2,867.4z"/>
	<path class="st1" d="M2638.8,707.3h185.3v21.1l-170.6,219h172.7v21.1h-200.1v-21.1l170.6-219h-158V707.3z"/>
	<path class="st1" d="M2933.7,707.3h25.3v263.3h-25.3V707.3z"/>
	<path class="st1" d="M3083.2,707.3h27.4l149.5,223.2l0,0V707.3h25.3v263.3H3258l-149.5-221.1l0,0v221.1h-25.3V707.3z"/>
	<path class="st1" d="M3411.7,707.3h179v21.1H3437v94.8h143.2v21.1H3437v103.2h155.8v21.1h-181.1L3411.7,707.3L3411.7,707.3z"/>
</g>
</svg>
