<?xml version="1.0" encoding="utf-8"?>
<!-- Generator: Adobe Illustrator 27.5.0, SVG Export Plug-In . SVG Version: 6.00 Build 0)  -->
<!DOCTYPE svg PUBLIC "-//W3C//DTD SVG 1.1//EN" "http://www.w3.org/Graphics/SVG/1.1/DTD/svg11.dtd" [
	<!ENTITY ns_extend "http://ns.adobe.com/Extensibility/1.0/">
	<!ENTITY ns_ai "http://ns.adobe.com/AdobeIllustrator/10.0/">
	<!ENTITY ns_graphs "http://ns.adobe.com/Graphs/1.0/">
	<!ENTITY ns_vars "http://ns.adobe.com/Variables/1.0/">
	<!ENTITY ns_imrep "http://ns.adobe.com/ImageReplacement/1.0/">
	<!ENTITY ns_sfw "http://ns.adobe.com/SaveForWeb/1.0/">
	<!ENTITY ns_custom "http://ns.adobe.com/GenericCustomNamespace/1.0/">
	<!ENTITY ns_adobe_xpath "http://ns.adobe.com/XPath/1.0/">
]>
<svg version="1.1" id="Layer_1" xmlns:x="&ns_extend;" xmlns:i="&ns_ai;" xmlns:graph="&ns_graphs;"
	 xmlns="http://www.w3.org/2000/svg" xmlns:xlink="http://www.w3.org/1999/xlink" x="0px" y="0px" viewBox="0 0 1000 1000"
	 style="enable-background:new 0 0 1000 1000;" xml:space="preserve">
<style type="text/css">
	.st0{fill:#C65122;}
</style>
<metadata>Svg Vector Icons : http://www.onlinewebfonts.com/icon<sfw  xmlns="&ns_sfw;">
	<slices></slices>
	<sliceSourceBounds  bottomLeftOrigin="true" height="980" width="980" x="10" y="10"></sliceSourceBounds>
</sfw>
</metadata>
<g>
	<g>
		<g>
			<path class="st0" d="M693.8,338c-11.4,16.1-17.6,121.9-13.2,134.7c3,8.7,6.6,17.3,24.2,27.4C723.5,423.4,729.7,287.1,693.8,338z"
				/>
			<path class="st0" d="M500,10C229.4,10,10,229.4,10,500s219.4,490,490,490s490-219.4,490-490S770.6,10,500,10z M739.8,657.3
				c-88.4,172.7-196.2,201.3-284,105.6c-9.1,6.2-19,12.5-28.5,19.2c-36.5,25.6-74.1,49.7-119.9,24.5
				c-48.5-26.7-60.1-75.6-54.3-123.3c8.6-70.6,51.6-210.1,51.6-210.1s42.1-110.2,23.6-150.6c-18.1-30.7-43.8-19.3-51.5,1.7
				c-21.3,76.1,50.1,75.9,10.3,150.1c-18.7,34.8-74.6,51-117.5,15.3c-43.8-36.5-49.2-96.5-32.6-145.6c13.4-39.4,32.9-67.6,65.2-101
				c43.9-45.4,110.4-55.5,169.4-26c50,25.1,74.6,82.9,59.8,150.2c-18.2,82.8-42.6,164.2-61,247c0,0-13.3,72.1,24,83.8
				c41.2,4.8,53.7-55.4,53.7-55.4c5.3-55,0.3-117.5,18.8-168.9c7.8-21.7,30.9-61.3,70.4-48.2c37.7,12.5,33.6,56.2,31.3,79.6
				c-4.9,50.2-32.3,93.6-43.8,143.5c-4,17.2-5.6,39.6,14.6,53c20.2,13.4,54.2-10.5,54.2-10.5s63.2-37.5,65.2-118.5
				c-46.6-55.1-52.9-82-52.9-82c-17.7-58,2.9-145.4,2.9-145.4c8.8-59.1,46.3-96.7,95.6-98.4c35.8-1.2,85.2,29,88.9,110.4
				c0,0,5.7,38.8-32.7,218.3c5.8,9,5.7,13.3,17.8,20.6c21.3,12.8,42.7,15.1,57.7,6.1c26.3-15.8,41.9-44.2,53.9-73
				c39.1-20.5-0.2,53.7-15.4,78.3C843.4,658.7,799,681.5,739.8,657.3z"/>
		</g>
	</g>
</g>
</svg>
